<svg id="Слой_9" data-name="Слой 9" xmlns="http://www.w3.org/2000/svg" viewBox="0 0 1894.49 1920">
  <defs>
    <style>
      .cls-1 {
        fill: #b5a9bf;
      }

      .cls-2 {
        fill: #35333a;
      }

      .cls-3 {
        fill: #76e2e9;
      }

      .cls-4 {
        fill: #f4e9df;
      }

      .cls-5 {
        fill: #554a49;
      }

      .cls-6 {
        fill: #8e4a4a;
      }

      .cls-7 {
        fill: #ef9a9a;
      }
    </style>
  </defs>
  <title>logo</title>
  <g id="Слой_6" data-name="Слой 6">
    <path class="cls-1" d="M538.25,446.79c43.64-7.22,84.75-24.37,131.09-32.32,97.49-16.72,195.71-29.84,294.45-36.29,47.23-3.09,94.52-4.55,141.85-4.09,20.43.2,132,13.88,143.4-1.12L1371,213c40-64.36,128.19-233.41,223.49-210.91,45.71,10.79,76.59,85.07,85.12,125.83,18.32,87.56,25.32,199.9,2.54,287,0,0-27.94,106.68-17.78,137.16,27.56,82.69,37.23,179.1,86.5,251.75,32,47.21,67.79,93,90.13,145.91,24.23,57.39,30.16,118.77,35.46,180.19,4.46,51.61,7.81,103.44,9.16,155.23,2.34,89.57,3.79,180.22,8.85,270.68,3.19,59.87-108.14,125.13-150.14,156.67-3.07,2.31-42.5,30.44-80.8,53.26-99.49,59.26-197,85.25-270.93,105a1465.14,1465.14,0,0,1-301.41,47.41c-12,.61-60.9,3.13-125.75,1.07-105.05-3.33-189.83-16.72-260.33-28.17-193.91-31.5-277.58-69.9-328.5-98.21-87.5-48.64-120.85-91.12-124-132.22-1-13.52,1.75-35.51,9.61-79.1,5.54-30.73,10.66-61.53,16.88-92.13,6.69-32.92,10-68.12-2.54-99.3-4.72-11.76-11.52-22.55-17.6-33.67-58.68-107.43-41.34-243.5-13.18-357.32,15.26-61.69,14-134.44-9.15-195.31-21.67-57-63.89-106.12-94.61-158.72C92.28,559.92,28.14,462.27,4.45,365.34c-8-32.92-9.42-82,33.31-89.38,23.53-4.09,54.44,3.13,75.92,13.2,56.51,26.49,112.19,54.84,168.14,82.48,59,29.16,118.1,63.67,183.74,75.42C491.26,451.66,515.11,450.62,538.25,446.79Z" transform="translate(0)"/>
  </g>
  <g id="Слой_8" data-name="Слой 8">
    <path class="cls-2" d="M1066.13,993.53c-9.11-27.76-5-63.2,4.11-90.44A185.92,185.92,0,0,1,1096,854.41c6.79-9.29,19.63-26.56,41.53-41.53,35.08-24,72.49-33.15,114.55-35.8,44.38-2.79,88.3-5.56,114.55,21.47,40.85,42.07,6.32,128-36.75,155.61,0,0-45.82,32.46-84,45.82-29.9,10.46-62.71,11.14-93.8,6.54-21.3-3.15-39.46-12.52-59.94-16.71A37.47,37.47,0,0,0,1066.13,993.53Z" transform="translate(0)"/>
    <path class="cls-2" d="M728.81,1005.56c-5.68-59.9-4.19-113.36-66-142.28-13.42-6.28-28.87-7.9-43.44-9.49-51.62-5.61-104.18-2.73-156-2.42-5.8,0-11.72.09-17.18,2.06-28,10.08-21.41,77.33-20.53,98.52,1.82,43.71,20.46,79,59.08,102.51,45.22,27.47,103.24,23,150.74,3.69a155.52,155.52,0,0,0,62.38-32,27.73,27.73,0,0,1,13.4-3.61c7.22,0,10.67,3.22,13.92,1.55C727.59,1022.89,730.08,1018.92,728.81,1005.56Z" transform="translate(0)"/>
    <path class="cls-3" d="M1080.92,960.86c-9-19-4.66-38.28-2.8-45.66,3.41-13.52,9.42-22.06,21.43-39.14,7.84-11.14,16.68-23.72,31.68-37.28,20.55-18.57,41.16-31.2,68.74-35.05,37.52-5.24,79.55-8.59,116.71.57,20.28,5,30.24,7.7,37.28,14,20.57,18.33,12.27,69.43-10.25,102.51-10.44,15.34-22,24-37.28,35.41-32.36,24.2-63.62,33.24-103.44,35.41-14.82.81-26.5,1.42-41.94.93s-29.61-1.93-44.73-5.59c-10.57-2.56-17.13-5.12-23.3-10.25A46.18,46.18,0,0,1,1080.92,960.86Z" transform="translate(0)"/>
    <path class="cls-3" d="M715.17,968.69c-.85-19.39-1.27-29.39-6.12-42.17-3.72-9.82-8-21.16-19-29.93-8-6.36-18-9.79-38-16.66-4.18-1.44-8.17-2.75-10.58-3.44-12.91-3.68-37.34-7.86-106.46-8.06-14.28,0-28.57,0-42.85,0-28-.06-34.5-.2-39.71,5.23-3,3.1-4.43,9.73-7.32,23a171.24,171.24,0,0,0-4.18,28.22c-.47,7.94-1.13,18,1,30.31a109,109,0,0,0,13.59,36.58,190.61,190.61,0,0,0,15.68,26.13c7.87,11,14.12,19.76,25.08,28.22,17.28,13.33,34.94,17.18,42.85,18.81,4.3.89,14.06,2.65,31.35,2.09,10.6-.34,39-2.26,85.7-19.86,33.63-12.67,50.58-19.28,56.93-32.88C716.82,1006.36,716.27,993.8,715.17,968.69Z" transform="translate(0)"/>
    <path d="M528.31,870.12c-2.76,1.89-3.18,5.29-3.47,9.76a123.18,123.18,0,0,0-.06,19.54c1,13.42,2,26.87,2.17,40.32.14,15.23,5.22,31,11.9,44.93,5.9,12.29,14.18,23.88,25.63,32.51,4.94,3.72,10.53,7,16.82,8.17,12.12,2.26,24.5-3.76,33-11.91,19.47-18.62,20.86-45.44,20.92-69.13a189.25,189.25,0,0,0-13.44-69.92c-20.69-3.47-34-4.47-41.27-4.81-1.31-.06-9.81-.43-20.21-.68-9.19-.22-9.1-.08-14.05-.31-1.08,0-5.39-.22-7.93-.17C533.55,868.54,530.53,868.59,528.31,870.12Z" transform="translate(0)"/>
    <path d="M1158.89,812.79c-3.34,4.78-3.06,9-1.06,29.85,3.32,34.49,5.64,51.72,6.95,58.37,3.22,16.33,9.76,32.8,22.66,43.71,12.25,10.36,28.82,14.53,45,16.17,4.21.43,8.63.67,12.5-1,3.3-1.4,5.87-4,8.06-6.81,8.28-10.51,12.2-23.64,14.69-36.66,2.12-11.07,1.09-21.47.1-41.64-1.28-25.92-3.25-37-5.07-45.12-3.4-15.09-5.21-22.72-10.59-27.19-4-3.31-9.89-5.82-45.54-2.06C1166.45,804.67,1161.42,809.17,1158.89,812.79Z" transform="translate(0)"/>
  </g>
  <g id="Layer_10" data-name="Layer 10">
    <g id="Слой_7" data-name="Слой 7">
      <path class="cls-4" d="M556.49,1326.88c11-29.11,29-57.61,52.6-73.07,40.44-26.48,96.74-34.12,125.61-72.59,31-41.26,41.62-91.49,58.35-137.62,2.4-6.62,4.83-13.37,4.74-20.29-.58-45.78-44.75-89.19-44.75-137,0-51.73,30.52-94.83,8.91-147.18-9.86-23.88-1.72-41.35,29.42-45.53,40.83-5.48,67.58,26.92,93.77,47,30.68,23.57,65.66,43.84,99,64.68,44,27.5,22,108.48,22,108.48-1.87,41.5,2.54,104.86,43.65,134.14,7.89,5.62,17.77,9.72,23.11,17.14,5.18,7.19,5.05,16.08,7,24.3,8,33.36,60.45,43.22,94.57,37.78,45.53-7.26,86.71-22.69,130.61,2.08,28.67,16.18,56.65,34.68,75.75,59.12,24.22,31,15.26,59.93,29.41,91.39,10.8,24,34.91,37.41,32.78,65.76-3.86,51.19-81.89,84-122.25,114.52-50.16,37.91-98,78.52-145.92,118.42-31.94,26.61-61.72,53.2-107.36,62.72-138.8,28.93-226.68-85.88-349.36-113.14-100.72-22.38-179.27-46-174.25-145.48C544.77,1366.25,549.08,1346.43,556.49,1326.88Z" transform="translate(0)"/>
      <path class="cls-5" d="M831.19,1499.11a57.93,57.93,0,0,1,27.34-27.42c16.35-7.79,34.94-7.47,52.67-7.49,18.52,0,37.07-1.22,55.57-2.11a718.23,718.23,0,0,0,81.64-9c13.49-2.21,26.93-4.71,40.34-7.38q10.36-2.06,20.69-4.25c8.9-1.87,14.55-4.91,22.86.23s14.23,12.76,15.3,22.46c9-5.91,11.54-19,2.63-26-3.9-3.1-8.88-4.55-13.82-5.37-27.67-4.63-55.61,5.92-82.2,12a542.88,542.88,0,0,1-63.51,10.82c-14.08,1.48-42.14,7.6-49.53-9.48-1.33-3.07,0-3.61-1.65-12.48-.54-2.92-4.26-23.21-11.43-23.85-1.29-.11-3.45.33-6.42,4.06l6.83,39.38a582.1,582.1,0,0,1-68.62,7.94c-8.2.46-17.38,1.17-22.81,7.24C829.92,1476.28,833.26,1488.65,831.19,1499.11Z" transform="translate(0)"/>
      <path class="cls-6" d="M819.87,1325.81c5,4.15,12.36,10,21.57,16.67,14.63,10.54,21.94,15.81,29.85,19.57,0,0,40.3,19.15,79.27-1.07a18.3,18.3,0,0,0,5.49-4.41,16.7,16.7,0,0,0,3.18-7.83,61.54,61.54,0,0,1,7.56-19.17c2.38-3.93,6.89-8.1,15.92-16.43,3.42-3.15,6.27-5.6,8-7,5.35-4.57,10-8.26,13.53-11-7.68,1.59-18.54,3.55-31.63,5-66.64,7.28-101.86-9.14-137.31,13.21A85.15,85.15,0,0,0,819.87,1325.81Z" transform="translate(0)"/>
      <path class="cls-7" d="M925.52,1416a4.86,4.86,0,0,1-1.68-.65c-8.93-6-18-11.72-26.28-18.62-8.46-7.08-13.42-15.07-19.92-23.59-9.86-13.38-13.95-22.47-15.81-28.53a28.3,28.3,0,0,0-23.59-20.73c-11.31-1.67-16.16,4.52-21.85,3.43-11.88-2.29-25-35.69-12.77-55.66,13.4-21.83,49.5-25.1,72.55-26.64,28.23-1.89,60.79-4.45,88.63-.35,20.68,3,28.74,9.7,31,11.74a36.71,36.71,0,0,1,10.7,15.39,44.92,44.92,0,0,1,1.23,18.17,11.39,11.39,0,0,1-1.92,5.29,14,14,0,0,1-7.14,4.86c-12.18,4-23.37,5.57-30.72,9.11-10.12,4.86-17.78,15.77-19.41,25.91-1.52,9.38,1.35,22.87,2,25.85,2.32,10.83.88,16.59.07,21.2C947.51,1399.91,934,1417.75,925.52,1416Z" transform="translate(0)"/>
    </g>
  </g>
</svg>
